# xmcd CD database file
#
# Track frame offsets:
#	150
#	17587
#	34932
#
# Disc length: 697 seconds
#
# Revision: 1
# Processed by: cddbd v1.5.1PL0 Copyright (c) Steve Scherf et al.
# Submitted via: CDex 1.51
#
DISCID=1a02b703
DTITLE=Alicia Keys - Single 'If I ain't got you'
DYEAR=2004
DGENRE=R&B
TTITLE0=If I ain't got you (feat. Usher)
TTITLE1=If I ain't got you (album version)
TTITLE2=If I ain't got you (piano - vocal version)
EXTD=Single cd - feat usher YEAR: 2004
EXTT0=
EXTT1=
EXTT2=
PLAYORDER=
